<svg fill="none" xmlns="http://www.w3.org/2000/svg" viewBox="0 0 177 60"><rect x="8" y="8.794" width="168" height="50" rx="4" stroke="url(#a)" stroke-width="2"/><path d="M.979 6a6 6 0 0 1 6-6H164.96a6 6 0 0 1 6 6v41.033a6 6 0 0 1-6 6H6.979a6 6 0 0 1-6-6V6Z" fill="#000"/><path fill-rule="evenodd" clip-rule="evenodd" d="M46.748 27.58a4.95 4.95 0 0 1 2.356-4.152 5.066 5.066 0 0 0-3.991-2.157c-1.68-.177-3.307 1.004-4.163 1.004-.872 0-2.19-.987-3.608-.958a5.315 5.315 0 0 0-4.473 2.728c-1.934 3.349-.492 8.27 1.36 10.976.928 1.326 2.011 2.806 3.428 2.754 1.388-.058 1.906-.885 3.58-.885 1.659 0 2.145.885 3.59.851 1.49-.024 2.427-1.331 3.321-2.669a10.957 10.957 0 0 0 1.519-3.093 4.782 4.782 0 0 1-2.92-4.399ZM44.016 19.49A4.873 4.873 0 0 0 45.131 16a4.958 4.958 0 0 0-3.208 1.66 4.637 4.637 0 0 0-1.144 3.361 4.099 4.099 0 0 0 3.237-1.53Z" fill="#fff"/><path d="M65.786 20.81v.69h-3.388v-.69h3.388Zm-3.217-5.708V21.5h-.848v-6.398h.848Zm2.769 2.75v.69h-2.94v-.69h2.94Zm.404-2.75v.694h-3.344v-.694h3.344Zm1.542 0h.822l2.097 5.216 2.091-5.216h.826L70.52 21.5h-.642l-2.593-6.398Zm-.268 0h.725l.12 3.902V21.5h-.845v-6.398Zm5.643 0h.725V21.5h-.844v-2.496l.119-3.902Zm7.088 3.405h-1.622l-.008-.68h1.472c.243 0 .455-.042.637-.124a.963.963 0 0 0 .422-.351.982.982 0 0 0 .154-.554c0-.234-.046-.425-.137-.571a.753.753 0 0 0-.408-.326 1.945 1.945 0 0 0-.695-.105h-1.248V21.5h-.848v-6.398h2.097c.328 0 .62.033.878.1.258.065.476.168.655.308.182.138.32.314.413.528.094.213.14.47.14.769 0 .263-.067.502-.201.716a1.554 1.554 0 0 1-.563.518 2.202 2.202 0 0 1-.835.26l-.303.206Zm-.04 2.993h-1.915l.478-.69h1.438c.269 0 .498-.047.685-.14.19-.094.335-.226.435-.396.1-.173.15-.377.15-.61 0-.238-.043-.443-.128-.616a.881.881 0 0 0-.4-.4c-.181-.094-.416-.14-.703-.14h-1.209l.01-.682H80.2l.18.246c.308.027.568.114.782.264.214.146.376.334.488.562.114.229.171.48.171.756 0 .399-.088.736-.263 1.011-.173.273-.418.48-.734.624-.317.14-.689.211-1.117.211Zm3.547-6.398h2.118c.48 0 .886.073 1.217.22.334.146.588.363.76.65.176.284.264.634.264 1.05 0 .293-.06.561-.18.804-.117.24-.287.445-.51.615-.22.167-.483.292-.79.374l-.238.092h-1.99l-.01-.69h1.503c.305 0 .558-.052.76-.158.203-.108.355-.253.457-.435.103-.182.154-.382.154-.602 0-.246-.048-.461-.145-.646a.968.968 0 0 0-.457-.426c-.205-.103-.47-.154-.795-.154h-1.27V21.5h-.848v-6.398Zm3.74 6.398-1.556-2.9.883-.005 1.578 2.852v.053h-.906Zm6.05-.69v.69h-3.388v-.69h3.388Zm-3.216-5.708V21.5h-.848v-6.398h.848Zm2.768 2.75v.69h-2.94v-.69h2.94Zm.405-2.75v.694h-3.345v-.694h3.345Zm3.34 5.427 1.885-5.427h.918L96.775 21.5h-.654l.22-.971Zm-1.763-5.427 1.868 5.427.233.971h-.655l-2.364-6.398h.918Zm9.672 5.708v.69h-3.388v-.69h3.388Zm-3.217-5.708V21.5h-.848v-6.398h.848Zm2.769 2.75v.69h-2.94v-.69h2.94Zm.404-2.75v.694h-3.344v-.694h3.344Zm8.609 0V21.5h-.853l-3.221-4.935V21.5h-.848v-6.398h.848l3.234 4.948v-4.948h.84Zm4.131.566-2.119 5.832h-.865l2.439-6.398h.558l-.013.566Zm1.775 5.832-2.123-5.832-.013-.566h.558l2.448 6.398h-.87Zm-.11-2.369v.695h-3.595v-.695h3.595ZM77.898 28.977c2.298 0 3.813 1.816 3.813 4.622 0 2.813-1.506 4.62-3.778 4.62a3.07 3.07 0 0 1-2.849-1.583h-.043v4.484h-1.858V29.071h1.798v1.506h.035a3.212 3.212 0 0 1 2.882-1.6Zm9.965 0c2.298 0 3.813 1.816 3.813 4.622 0 2.813-1.506 4.62-3.779 4.62a3.07 3.07 0 0 1-2.848-1.583h-.043v4.484h-1.859V29.071h1.8v1.506h.033a3.212 3.212 0 0 1 2.883-1.6Zm13.342-3.477c2.624 0 4.423 1.472 4.483 3.614h-1.876c-.112-1.239-1.136-1.987-2.633-1.987s-2.522.757-2.522 1.858c0 .878.654 1.395 2.255 1.79l1.368.336c2.548.603 3.607 1.626 3.607 3.443 0 2.323-1.851 3.778-4.794 3.778-2.754 0-4.614-1.42-4.734-3.667h1.903c.137 1.232 1.334 2.04 2.968 2.04 1.567 0 2.694-.808 2.694-1.919 0-.964-.68-1.54-2.289-1.936l-1.61-.388c-2.28-.55-3.339-1.617-3.339-3.348 0-2.142 1.868-3.614 4.519-3.614Zm15.705 3.46c2.625 0 4.295 1.79 4.295 4.639 0 2.856-1.661 4.638-4.295 4.638-2.633 0-4.294-1.782-4.294-4.638 0-2.849 1.678-4.639 4.294-4.639Zm15.049 0c2.505 0 4.08 1.72 4.08 4.466v.636h-6.394v.113a2.357 2.357 0 0 0 2.435 2.564 2.049 2.049 0 0 0 2.091-1.273h1.765c-.25 1.643-1.851 2.771-3.899 2.771-2.634 0-4.268-1.764-4.268-4.595 0-2.84 1.643-4.682 4.19-4.682Zm-22.062-2.031v2.142h1.722v1.472h-1.722v4.991c0 .776.345 1.137 1.102 1.137a5.79 5.79 0 0 0 .611-.043v1.463c-.34.063-.686.092-1.032.086-1.833 0-2.548-.689-2.548-2.445v-5.189h-1.316v-1.472h1.316V26.93h1.867Zm-42.352-1.222 4.483 12.418H69.99l-1.136-3.356H64.12l-1.137 3.356h-2.005l4.484-12.418h2.083Zm59.185 3.27c.215-.001.428.022.637.069v1.738a2.597 2.597 0 0 0-.835-.112 1.872 1.872 0 0 0-1.936 2.083v5.37h-1.859v-9.054h1.773v1.541h.043a2.159 2.159 0 0 1 2.177-1.635Zm-9.82 1.514c-1.506 0-2.4 1.162-2.4 3.108 0 1.962.894 3.106 2.4 3.106 1.506 0 2.402-1.144 2.402-3.106 0-1.954-.896-3.108-2.402-3.108Zm-39.502.07c-1.42 0-2.375 1.23-2.375 3.038 0 1.824.955 3.046 2.375 3.046 1.445 0 2.393-1.197 2.393-3.046 0-1.833-.948-3.038-2.393-3.038Zm9.965 0c-1.42 0-2.375 1.23-2.375 3.038 0 1.824.955 3.046 2.375 3.046 1.445 0 2.393-1.197 2.393-3.046 0-1.833-.948-3.038-2.393-3.038Zm-20.86-2.788h-.052l-1.85 5.447h3.751l-1.85-5.447Zm65.446 2.693a2.293 2.293 0 0 0-2.306 2.298h4.527a2.179 2.179 0 0 0-2.221-2.298ZM6.979 2H164.96v-4H6.979v4ZM168.96 6v41.033h4V6h-4Zm-4 45.033H6.979v4H164.96v-4Zm-161.981-4V6h-4v41.033h4Zm4 4a4 4 0 0 1-4-4h-4a8 8 0 0 0 8 8v-4Zm161.981-4a4 4 0 0 1-4 4v4a8 8 0 0 0 8-8h-4ZM164.96 2a4 4 0 0 1 4 4h4a8 8 0 0 0-8-8v4ZM6.979-2a8 8 0 0 0-8 8h4a4 4 0 0 1 4-4v-4Z" fill="#fff"/><defs><linearGradient id="a" x1="7" y1="33.794" x2="177" y2="33.794" gradientUnits="userSpaceOnUse"><stop stop-color="#fff"/><stop offset="0" stop-color="#fff" stop-opacity="0"/><stop offset=".51" stop-color="#F7C2D2"/><stop offset=".667" stop-color="#BB4981"/><stop offset=".911" stop-color="#185AA1"/><stop offset="1" stop-color="#1F478B"/></linearGradient></defs></svg>