<svg fill="none" xmlns="http://www.w3.org/2000/svg" viewBox="0 0 645 539"><path d="M118 80c0-44.183 35.817-80 80-80h290c44.183 0 80 35.817 80 80v374c0 44.183-35.817 80-80 80H198c-44.183 0-80-35.817-80-80V80Z" fill="url(#a)"/><path d="M49.092 423.896c13.502-28.059 55.368-85.738 114.817-91.987 74.311-7.812 125.03 18.75 214.973-8.713 89.943-27.464 132.084-147.072 216.958-150.346" stroke="#F7C2D2" stroke-width="13" stroke-linecap="round"/><path fill="#BB4981" d="M209 123h71v399h-71z"/><path fill="#185AA1" d="M311 285h71v237h-71z"/><path fill="#E1E3E6" d="M413 355h71v167h-71z"/><path fill="#CFD2D4" d="M171 539h346v-9H171z"/><path d="M73.816 504.863c13.404-28.376 55.088-86.651 114.586-92.742 74.371-7.614 125.261 19.505 215.203-7.958 89.943-27.464 131.652-148.487 216.618-151.461" stroke="#99D6F1" stroke-width="13" stroke-linecap="round"/><path d="M24.723 344.086c13.405-28.376 55.089-86.65 114.586-92.741 74.371-7.615 125.261 19.505 215.204-7.959C444.455 215.923 486.164 94.9 571.13 91.926" stroke="#F5F8FA" stroke-width="13" stroke-linecap="round"/><g filter="url(#b)"><rect x="210" y="30" width="69" height="69" rx="14" fill="#BB4981"/></g><rect x="221.35" y="42.075" width="47.3" height="44.85" rx="8" fill="#fff"/><path d="M244.5 52.425v24.15M235.875 56.737v19.838M253.125 61.913v14.662" stroke="#68717A" stroke-width="4" stroke-linecap="round"/><g filter="url(#c)"><rect x="312" y="193" width="69" height="69" rx="14" fill="#185AA1"/></g><rect x="323.35" y="205.075" width="47.3" height="44.85" rx="8" fill="#fff"/><path d="M346.5 215.425v24.15M337.875 219.738v19.837M355.125 224.913v14.662" stroke="#68717A" stroke-width="4" stroke-linecap="round"/><g filter="url(#d)"><rect x="414" y="263" width="69" height="69" rx="14" fill="#E1E3E6"/></g><rect x="425.35" y="275.075" width="47.3" height="44.85" rx="8" fill="#fff"/><path d="M448.5 285.425v24.15M439.875 289.738v19.837M457.125 294.913v14.662" stroke="#68717A" stroke-width="4" stroke-linecap="round"/><defs><filter id="b" x="166" y="0" width="157" height="157" filterUnits="userSpaceOnUse" color-interpolation-filters="sRGB"><feFlood flood-opacity="0" result="BackgroundImageFix"/><feColorMatrix in="SourceAlpha" values="0 0 0 0 0 0 0 0 0 0 0 0 0 0 0 0 0 0 127 0" result="hardAlpha"/><feOffset dy="14"/><feGaussianBlur stdDeviation="22"/><feColorMatrix values="0 0 0 0 0.409288 0 0 0 0 0.444227 0 0 0 0 0.479167 0 0 0 0.65 0"/><feBlend in2="BackgroundImageFix" result="effect1_dropShadow_717_23924"/><feBlend in="SourceGraphic" in2="effect1_dropShadow_717_23924" result="shape"/></filter><filter id="c" x="268" y="163" width="157" height="157" filterUnits="userSpaceOnUse" color-interpolation-filters="sRGB"><feFlood flood-opacity="0" result="BackgroundImageFix"/><feColorMatrix in="SourceAlpha" values="0 0 0 0 0 0 0 0 0 0 0 0 0 0 0 0 0 0 127 0" result="hardAlpha"/><feOffset dy="14"/><feGaussianBlur stdDeviation="22"/><feColorMatrix values="0 0 0 0 0.409288 0 0 0 0 0.444227 0 0 0 0 0.479167 0 0 0 0.65 0"/><feBlend in2="BackgroundImageFix" result="effect1_dropShadow_717_23924"/><feBlend in="SourceGraphic" in2="effect1_dropShadow_717_23924" result="shape"/></filter><filter id="d" x="370" y="233" width="157" height="157" filterUnits="userSpaceOnUse" color-interpolation-filters="sRGB"><feFlood flood-opacity="0" result="BackgroundImageFix"/><feColorMatrix in="SourceAlpha" values="0 0 0 0 0 0 0 0 0 0 0 0 0 0 0 0 0 0 127 0" result="hardAlpha"/><feOffset dy="14"/><feGaussianBlur stdDeviation="22"/><feColorMatrix values="0 0 0 0 0.409288 0 0 0 0 0.444227 0 0 0 0 0.479167 0 0 0 0.65 0"/><feBlend in2="BackgroundImageFix" result="effect1_dropShadow_717_23924"/><feBlend in="SourceGraphic" in2="effect1_dropShadow_717_23924" result="shape"/></filter><radialGradient id="a" cx="0" cy="0" r="1" gradientUnits="userSpaceOnUse" gradientTransform="matrix(-357.45637 534.34519 -878.8863 -587.94113 475.453 15.624)"><stop offset=".331" stop-color="#fff" stop-opacity="0"/><stop offset=".552" stop-color="#BB4981" stop-opacity=".28"/><stop offset=".731" stop-color="#185AA1" stop-opacity=".46"/><stop offset=".939" stop-color="#1F478B"/></radialGradient></defs></svg>