<svg fill="none" xmlns="http://www.w3.org/2000/svg" viewBox="0 0 176 60"><rect x="7" y="8.794" width="168" height="50" rx="4" stroke="url(#a)" stroke-width="2"/><path d="M0 6a6 6 0 0 1 6-6h157.981a6 6 0 0 1 6 6v41.033a6 6 0 0 1-6 6H6a6 6 0 0 1-6-6V6Z" fill="#000"/><path fill-rule="evenodd" clip-rule="evenodd" d="M29.435 14.547c-.291.308-.462.785-.462 1.404v22.098c0 .619.17 1.096.462 1.404l.074.072 12.379-12.38v-.291l-12.38-12.38-.073.073Z" fill="#00D7FE"/><mask id="b" style="mask-type:alpha" maskUnits="userSpaceOnUse" x="41" y="22" width="12" height="10"><path d="m46.013 31.274-4.125-4.128v-.292l4.127-4.127 4.982 2.83c1.396.794 1.396 2.092 0 2.885l-4.89 2.778-.094.054Z" fill="#fff"/></mask><g mask="url(#b)"><path fill-rule="evenodd" clip-rule="evenodd" d="m46.013 31.274-4.125-4.128v-.292l4.127-4.127 4.982 2.83c1.396.794 1.396 2.092 0 2.885l-4.89 2.778-.094.054Z" fill="url(#c)"/></g><mask id="d" style="mask-type:alpha" maskUnits="userSpaceOnUse" x="29" y="27" width="18" height="13"><path d="M46.108 31.22 41.888 27 29.435 39.453c.46.487 1.22.547 2.077.061l14.596-8.294Z" fill="#fff"/></mask><g mask="url(#d)"><path fill-rule="evenodd" clip-rule="evenodd" d="M46.108 31.22 41.888 27 29.435 39.453c.46.487 1.22.547 2.077.061l14.596-8.294Z" fill="url(#e)"/></g><mask id="f" style="mask-type:alpha" maskUnits="userSpaceOnUse" x="29" y="14" width="18" height="13"><path d="m46.108 22.78-14.596-8.294c-.856-.486-1.616-.426-2.077.06L41.888 27l4.22-4.22Z" fill="#fff"/></mask><g mask="url(#f)"><path fill-rule="evenodd" clip-rule="evenodd" d="m46.108 22.78-14.596-8.294c-.856-.486-1.616-.426-2.077.06L41.888 27l4.22-4.22Z" fill="url(#g)"/></g><path fill-rule="evenodd" clip-rule="evenodd" d="M123.894 37.953h1.866V25.452h-1.866v12.501Zm16.807-7.998-2.139 5.42h-.064l-2.22-5.42h-2.01l3.329 7.575-1.898 4.214h1.947l5.13-11.789h-2.075Zm-10.582 6.578c-.612 0-1.464-.305-1.464-1.061 0-.965 1.062-1.335 1.978-1.335.821 0 1.206.177 1.705.418a2.262 2.262 0 0 1-2.219 1.978Zm.225-6.851c-1.351 0-2.75.595-3.329 1.914l1.656.691c.354-.691 1.013-.917 1.705-.917.965 0 1.946.579 1.962 1.609v.128c-.338-.193-1.061-.482-1.946-.482-1.785 0-3.603.981-3.603 2.814 0 1.673 1.464 2.751 3.104 2.751 1.255 0 1.946-.563 2.381-1.223h.064v.965h1.801V33.14c0-2.22-1.656-3.458-3.795-3.458Zm-11.532 1.795h-2.654v-4.285h2.654c1.395 0 2.187 1.155 2.187 2.142 0 .969-.792 2.143-2.187 2.143Zm-.048-6.025h-4.471v12.501h1.865v-4.736h2.606c2.068 0 4.101-1.498 4.101-3.883s-2.033-3.882-4.101-3.882ZM94.383 36.535c-1.289 0-2.368-1.079-2.368-2.561 0-1.498 1.079-2.594 2.368-2.594 1.273 0 2.271 1.096 2.271 2.594 0 1.482-.998 2.561-2.271 2.561Zm2.142-5.88h-.064c-.419-.499-1.224-.95-2.239-.95-2.127 0-4.076 1.868-4.076 4.269 0 2.384 1.949 4.237 4.076 4.237 1.015 0 1.82-.451 2.239-.967h.064v.612c0 1.628-.869 2.498-2.271 2.498-1.144 0-1.853-.822-2.143-1.515l-1.627.677c.467 1.128 1.708 2.513 3.77 2.513 2.191 0 4.044-1.289 4.044-4.43v-7.637h-1.773v.693Zm3.062 7.298h1.869V25.451h-1.869v12.502Zm4.623-4.124c-.048-1.643 1.273-2.481 2.223-2.481.742 0 1.37.37 1.579.902l-3.802 1.579Zm5.8-1.418c-.354-.95-1.434-2.706-3.641-2.706-2.191 0-4.011 1.723-4.011 4.253 0 2.384 1.804 4.253 4.22 4.253 1.95 0 3.078-1.192 3.545-1.885l-1.45-.967c-.483.709-1.144 1.176-2.095 1.176-.95 0-1.627-.435-2.062-1.288l5.687-2.352-.193-.484ZM64.702 31.01v1.804h4.317c-.129 1.015-.467 1.756-.982 2.272-.629.628-1.612 1.32-3.335 1.32-2.658 0-4.737-2.142-4.737-4.8 0-2.659 2.079-4.801 4.737-4.801 1.434 0 2.481.564 3.254 1.289l1.273-1.273C68.149 25.79 66.716 25 64.702 25 61.061 25 58 27.965 58 31.606s3.061 6.605 6.702 6.605c1.965 0 3.447-.644 4.607-1.853 1.192-1.192 1.563-2.867 1.563-4.221 0-.419-.032-.805-.097-1.127h-6.073Zm11.079 5.525c-1.289 0-2.401-1.063-2.401-2.577 0-1.531 1.112-2.578 2.401-2.578 1.288 0 2.4 1.047 2.4 2.578 0 1.514-1.112 2.577-2.4 2.577Zm0-6.83c-2.353 0-4.27 1.788-4.27 4.253 0 2.448 1.917 4.253 4.27 4.253 2.352 0 4.269-1.805 4.269-4.253 0-2.465-1.917-4.253-4.269-4.253Zm9.313 6.83c-1.289 0-2.401-1.063-2.401-2.577 0-1.531 1.112-2.578 2.401-2.578 1.289 0 2.4 1.047 2.4 2.578 0 1.514-1.111 2.577-2.4 2.577Zm0-6.83c-2.352 0-4.269 1.788-4.269 4.253 0 2.448 1.917 4.253 4.269 4.253 2.352 0 4.269-1.805 4.269-4.253 0-2.465-1.917-4.253-4.269-4.253Z" fill="#FFFFFE"/><path d="M60.474 21h-1.336l.009-.69h1.327c.457 0 .838-.095 1.143-.286.304-.193.533-.463.685-.808.156-.349.233-.756.233-1.222v-.391c0-.366-.044-.691-.132-.976a1.975 1.975 0 0 0-.386-.725 1.63 1.63 0 0 0-.624-.452 2.146 2.146 0 0 0-.84-.154h-1.441v-.694h1.441c.42 0 .802.07 1.147.21.346.138.643.339.892.603.252.26.446.577.58.949.135.369.203.785.203 1.248v.382c0 .463-.068.88-.203 1.253a2.554 2.554 0 0 1-1.499 1.547 3.292 3.292 0 0 1-1.199.206Zm-.883-6.398V21h-.848v-6.398h.848Zm5.698 0V21h-.849v-6.398h.849Zm4.682 4.78c0-.149-.023-.28-.07-.395a.752.752 0 0 0-.237-.316 1.862 1.862 0 0 0-.466-.268 6.493 6.493 0 0 0-.747-.26 6.873 6.873 0 0 1-.857-.312 2.986 2.986 0 0 1-.655-.4 1.58 1.58 0 0 1-.417-.514 1.464 1.464 0 0 1-.146-.663 1.557 1.557 0 0 1 .594-1.24 2.13 2.13 0 0 1 .69-.368c.266-.088.564-.132.892-.132.48 0 .887.092 1.221.277.337.181.594.42.77.716.175.293.263.606.263.94h-.844c0-.24-.05-.452-.153-.637a1.06 1.06 0 0 0-.466-.44c-.208-.108-.472-.162-.791-.162-.302 0-.551.045-.747.136a.988.988 0 0 0-.44.37c-.093.155-.14.332-.14.531 0 .135.028.258.083.37a1 1 0 0 0 .268.303c.123.093.279.18.466.259.19.079.418.155.681.228.364.103.677.217.94.343.264.126.481.268.651.426.173.156.3.333.382.532.085.196.128.419.128.668 0 .26-.053.497-.158.707a1.538 1.538 0 0 1-.453.541c-.196.15-.432.265-.708.347-.272.08-.577.119-.914.119-.296 0-.587-.041-.874-.123a2.605 2.605 0 0 1-.778-.37 1.935 1.935 0 0 1-.558-.606 1.683 1.683 0 0 1-.207-.844h.844c0 .22.043.41.127.567.086.156.201.285.348.387.15.103.318.179.505.229.19.047.388.07.593.07.296 0 .547-.041.752-.123.205-.082.36-.2.466-.352a.908.908 0 0 0 .162-.54Zm4.024-.891h-1.71v-.69h1.71c.33 0 .599-.053.804-.158a.987.987 0 0 0 .448-.44 1.38 1.38 0 0 0 .145-.642c0-.22-.048-.426-.145-.62a1.07 1.07 0 0 0-.448-.465c-.205-.12-.473-.18-.804-.18h-1.512V21h-.848v-6.398h2.36c.483 0 .892.083 1.226.25.334.167.587.399.76.694.173.293.26.629.26 1.007 0 .41-.087.76-.26 1.05-.173.29-.426.511-.76.664-.334.149-.743.224-1.226.224Zm7.974-.892v.404c0 .48-.06.911-.18 1.292-.12.38-.293.704-.519.971a2.25 2.25 0 0 1-.813.611 2.55 2.55 0 0 1-1.055.21c-.377 0-.725-.07-1.041-.21a2.343 2.343 0 0 1-.818-.61 2.846 2.846 0 0 1-.531-.972 4.103 4.103 0 0 1-.19-1.292v-.404c0-.48.062-.91.185-1.288.126-.38.304-.705.532-.971.229-.27.5-.475.813-.615a2.53 2.53 0 0 1 1.042-.211c.39 0 .74.07 1.054.21.317.141.588.346.813.616.229.266.403.59.523.971.123.378.185.807.185 1.288Zm-.84.404v-.413c0-.381-.04-.718-.118-1.01a2.094 2.094 0 0 0-.339-.74 1.46 1.46 0 0 0-.549-.452 1.666 1.666 0 0 0-.73-.154c-.263 0-.502.052-.716.154-.21.103-.392.254-.545.453a2.216 2.216 0 0 0-.347.738 3.76 3.76 0 0 0-.123 1.01v.414c0 .384.041.724.123 1.02.082.292.2.54.352.742.155.2.338.35.55.453.213.102.452.154.715.154.276 0 .52-.052.734-.154.214-.103.394-.254.54-.453.15-.202.263-.45.34-.742a4.17 4.17 0 0 0 .113-1.02Zm6.762-3.401V21h-.853l-3.221-4.935V21h-.848v-6.398h.848l3.234 4.948v-4.948h.84Zm2.142 0V21h-.848v-6.398h.848Zm-.874-.475.852-1.292h.98l-1.177 1.292h-.655Zm4.212 5.902 1.886-5.427h.918L93.806 21h-.654l.22-.971Zm-1.762-5.427 1.868 5.427.233.971h-.655l-2.364-6.398h.918Zm9.222 5.708V21h-3.388v-.69h3.388Zm-3.217-5.708V21h-.848v-6.398h.848Zm2.769 2.75v.69h-2.94v-.69h2.94Zm.404-2.75v.694h-3.344v-.694h3.344Zm4.705 5.708V21h-3.199v-.69h3.199Zm-3.032-5.708V21h-.848v-6.398h.848Zm10.617 0V21h-.852l-3.221-4.935V21h-.849v-6.398h.849l3.234 4.948v-4.948h.839Zm6.16 2.997v.404c0 .48-.06.911-.181 1.292-.12.38-.293.704-.518.971-.226.267-.497.47-.813.611-.314.14-.665.21-1.055.21-.378 0-.725-.07-1.041-.21a2.345 2.345 0 0 1-.818-.61 2.853 2.853 0 0 1-.531-.972 4.103 4.103 0 0 1-.189-1.292v-.404c0-.48.061-.91.184-1.288a2.84 2.84 0 0 1 .532-.971c.228-.27.499-.475.813-.615a2.526 2.526 0 0 1 1.041-.211c.39 0 .742.07 1.055.21.316.141.587.346.813.616.229.266.403.59.523.971.123.378.185.807.185 1.288Zm-.84.404v-.413c0-.381-.039-.718-.118-1.01a2.1 2.1 0 0 0-.339-.74 1.459 1.459 0 0 0-.549-.452 1.667 1.667 0 0 0-.73-.154c-.263 0-.502.052-.716.154a1.513 1.513 0 0 0-.545.453 2.22 2.22 0 0 0-.347.738 3.76 3.76 0 0 0-.123 1.01v.414c0 .384.041.724.123 1.02a2.2 2.2 0 0 0 .352.742c.155.2.338.35.549.453.214.102.452.154.716.154.276 0 .52-.052.734-.154.214-.103.394-.254.541-.453a2.15 2.15 0 0 0 .338-.742c.076-.296.114-.636.114-1.02ZM6 2h157.981v-4H6v4Zm161.981 4v41.033h4V6h-4Zm-4 45.033H6v4h157.981v-4ZM2 47.033V6h-4v41.033h4Zm4 4a4 4 0 0 1-4-4h-4a8 8 0 0 0 8 8v-4Zm161.981-4a4 4 0 0 1-4 4v4a8 8 0 0 0 8-8h-4Zm-4-45.033a4 4 0 0 1 4 4h4a8 8 0 0 0-8-8v4ZM6-2a8 8 0 0 0-8 8h4a4 4 0 0 1 4-4v-4Z" fill="#fff"/><defs><linearGradient id="a" x1="6" y1="33.794" x2="176" y2="33.794" gradientUnits="userSpaceOnUse"><stop stop-color="#fff"/><stop offset="0" stop-color="#fff" stop-opacity="0"/><stop offset=".51" stop-color="#F7C2D2"/><stop offset=".667" stop-color="#BB4981"/><stop offset=".911" stop-color="#185AA1"/><stop offset="1" stop-color="#1F478B"/></linearGradient><linearGradient id="c" x1="50.089" y1="27" x2="41.888" y2="27" gradientUnits="userSpaceOnUse"><stop stop-color="#FFBC00"/><stop offset="1" stop-color="#FFDA03"/></linearGradient><linearGradient id="e" x1="43.814" y1="30.971" x2="33.111" y2="39.793" gradientUnits="userSpaceOnUse"><stop stop-color="#E22652"/><stop offset="1" stop-color="#FF3A44"/></linearGradient><linearGradient id="g" x1="31.32" y1="16.046" x2="38.456" y2="22.321" gradientUnits="userSpaceOnUse"><stop stop-color="#0ED574"/><stop offset="1" stop-color="#07F076"/></linearGradient></defs></svg>