<svg fill="none" xmlns="http://www.w3.org/2000/svg" viewBox="0 0 39 39"><rect x="1.5" y="1.5" width="36" height="36" rx="18" stroke="#BB4981" stroke-width="3"/><path fill-rule="evenodd" clip-rule="evenodd" d="M16 26h-3v-9h3v9ZM14.491 15h-.017C13.579 15 13 14.333 13 13.5c0-.852.596-1.5 1.509-1.5.912 0 1.474.648 1.491 1.5 0 .833-.58 1.5-1.509 1.5ZM27 26h-2.948v-4.705c0-1.181-.427-1.988-1.494-1.988-.814 0-1.3.544-1.512 1.069-.078.188-.098.45-.098.713V26H18s.039-7.968 0-8.793h2.948v1.245C21.34 17.853 22.041 17 23.606 17 25.546 17 27 18.257 27 20.958V26Z" fill="#fff"/></svg>