<svg fill="none" xmlns="http://www.w3.org/2000/svg" viewBox="0 0 39 39"><rect x="1.5" y="1.5" width="36" height="36" rx="18" stroke="#BB4981" stroke-width="3"/><path fill-rule="evenodd" clip-rule="evenodd" d="m19.312 16.926.028.476-.47-.058c-1.709-.224-3.202-.981-4.47-2.253l-.62-.631-.16.466c-.338 1.039-.122 2.136.582 2.874.376.408.291.466-.357.223-.225-.077-.422-.136-.441-.106-.066.067.16.951.338 1.3.244.486.742.962 1.287 1.244l.46.223-.545.01c-.526 0-.544.01-.488.213.188.631.93 1.301 1.756 1.593l.583.203-.507.311c-.752.447-1.635.7-2.518.719-.422.01-.77.048-.77.077 0 .098 1.146.641 1.813.855 2 .631 4.377.36 6.162-.719 1.268-.767 2.536-2.291 3.128-3.767.32-.787.638-2.224.638-2.913 0-.447.029-.505.555-1.039.31-.31.6-.65.657-.748.094-.184.085-.184-.394-.019-.799.291-.911.252-.517-.185.291-.31.639-.873.639-1.038 0-.03-.141.019-.3.106-.17.098-.546.243-.827.33l-.508.166-.46-.32c-.253-.176-.61-.37-.798-.428-.48-.136-1.212-.117-1.644.039-1.174.437-1.916 1.563-1.832 2.796Z" fill="#fff"/></svg>